<svg xmlns="http://www.w3.org/2000/svg" xmlns:xlink="http://www.w3.org/1999/xlink" width="1024" zoomAndPan="magnify" viewBox="0 0 768 767.999994" height="1024" preserveAspectRatio="xMidYMid meet" version="1.2"><g id="2f797eca57"><path style=" stroke:none;fill-rule:nonzero;fill:#ffffff;fill-opacity:1;" d="M 384 153 L 30 384 L 384 615 L 738 384 Z M 384 234 C 386.453125 234 388.910156 234.058594 391.359375 234.179688 C 393.8125 234.300781 396.257812 234.480469 398.703125 234.722656 C 401.144531 234.964844 403.582031 235.261719 406.007812 235.625 C 408.4375 235.984375 410.855469 236.402344 413.261719 236.882812 C 415.671875 237.359375 418.066406 237.898438 420.445312 238.496094 C 422.828125 239.09375 425.195312 239.746094 427.542969 240.457031 C 429.890625 241.171875 432.222656 241.941406 434.535156 242.769531 C 436.84375 243.59375 439.132812 244.480469 441.402344 245.417969 C 443.671875 246.359375 445.914062 247.351562 448.132812 248.402344 C 450.351562 249.453125 452.542969 250.554688 454.710938 251.710938 C 456.875 252.867188 459.007812 254.078125 461.117188 255.339844 C 463.222656 256.601562 465.292969 257.914062 467.335938 259.28125 C 469.375 260.644531 471.382812 262.054688 473.355469 263.519531 C 475.328125 264.980469 477.261719 266.492188 479.160156 268.046875 C 481.054688 269.605469 482.914062 271.207031 484.734375 272.855469 C 486.550781 274.507812 488.328125 276.199219 490.066406 277.933594 C 491.800781 279.667969 493.492188 281.445312 495.140625 283.265625 C 496.792969 285.085938 498.394531 286.941406 499.953125 288.839844 C 501.507812 290.738281 503.019531 292.671875 504.480469 294.644531 C 505.941406 296.617188 507.355469 298.625 508.71875 300.664062 C 510.085938 302.707031 511.398438 304.777344 512.660156 306.882812 C 513.921875 308.988281 515.132812 311.125 516.289062 313.289062 C 517.445312 315.457031 518.546875 317.648438 519.597656 319.867188 C 520.648438 322.085938 521.640625 324.328125 522.582031 326.597656 C 523.519531 328.867188 524.40625 331.15625 525.230469 333.464844 C 526.058594 335.777344 526.828125 338.109375 527.542969 340.457031 C 528.253906 342.804688 528.90625 345.171875 529.503906 347.554688 C 530.101562 349.933594 530.640625 352.328125 531.117188 354.738281 C 531.597656 357.144531 532.015625 359.5625 532.375 361.992188 C 532.738281 364.417969 533.035156 366.855469 533.277344 369.296875 C 533.519531 371.742188 533.699219 374.1875 533.820312 376.640625 C 533.941406 379.089844 534 381.546875 534 384 C 534 389.019531 533.746094 394.027344 533.242188 399.019531 C 461.058594 344.761719 367.484375 312.707031 279.871094 314.40625 C 269.925781 314.601562 260.0625 315.257812 250.308594 316.335938 C 251.863281 313.261719 253.519531 310.246094 255.28125 307.285156 C 257.042969 304.328125 258.902344 301.433594 260.863281 298.601562 C 262.824219 295.769531 264.882812 293.007812 267.03125 290.320312 C 269.183594 287.628906 271.421875 285.015625 273.753906 282.480469 C 276.085938 279.945312 278.5 277.496094 281 275.125 C 283.5 272.757812 286.078125 270.476562 288.734375 268.285156 C 291.390625 266.09375 294.121094 263.996094 296.921875 261.992188 C 299.722656 259.988281 302.589844 258.085938 305.519531 256.277344 C 308.453125 254.472656 311.445312 252.769531 314.496094 251.171875 C 317.542969 249.570312 320.644531 248.078125 323.796875 246.691406 C 326.949219 245.304688 330.148438 244.027344 333.386719 242.863281 C 336.628906 241.695312 339.902344 240.640625 343.21875 239.703125 C 346.53125 238.761719 349.871094 237.9375 353.242188 237.226562 C 356.609375 236.515625 360 235.921875 363.410156 235.445312 C 366.824219 234.96875 370.246094 234.609375 373.679688 234.367188 C 377.117188 234.125 380.554688 234.003906 384 234 M 285.648438 341.59375 C 369.03125 341.792969 460.253906 374.683594 527.214844 428.5625 C 526.035156 432.351562 524.710938 436.089844 523.234375 439.773438 C 521.757812 443.457031 520.140625 447.074219 518.378906 450.628906 C 516.613281 454.183594 514.714844 457.664062 512.675781 461.070312 C 510.636719 464.472656 508.464844 467.789062 506.164062 471.023438 C 503.863281 474.253906 501.4375 477.390625 498.886719 480.429688 C 496.335938 483.46875 493.667969 486.402344 490.882812 489.230469 C 488.101562 492.058594 485.207031 494.769531 482.210938 497.367188 C 479.210938 499.96875 476.113281 502.441406 472.917969 504.796875 C 469.722656 507.148438 466.4375 509.371094 463.066406 511.460938 C 459.695312 513.554688 456.246094 515.507812 452.71875 517.328125 C 449.191406 519.144531 445.597656 520.820312 441.941406 522.351562 C 438.28125 523.886719 434.566406 525.273438 430.796875 526.511719 C 427.027344 527.75 423.210938 528.835938 419.355469 529.769531 C 415.5 530.707031 411.613281 531.488281 407.695312 532.113281 C 403.777344 532.742188 399.839844 533.210938 395.886719 533.527344 C 391.929688 533.84375 387.96875 534 384 534 C 381.546875 534 379.089844 533.941406 376.640625 533.820312 C 374.1875 533.699219 371.742188 533.519531 369.296875 533.277344 C 366.855469 533.035156 364.417969 532.738281 361.992188 532.375 C 359.5625 532.015625 357.144531 531.597656 354.738281 531.117188 C 352.328125 530.640625 349.933594 530.101562 347.554688 529.503906 C 345.171875 528.90625 342.804688 528.253906 340.457031 527.542969 C 338.109375 526.828125 335.777344 526.058594 333.464844 525.230469 C 331.15625 524.40625 328.867188 523.519531 326.597656 522.582031 C 324.328125 521.640625 322.085938 520.648438 319.867188 519.597656 C 317.648438 518.546875 315.457031 517.445312 313.289062 516.289062 C 311.125 515.132812 308.988281 513.921875 306.882812 512.660156 C 304.777344 511.398438 302.707031 510.085938 300.664062 508.71875 C 298.625 507.355469 296.617188 505.945312 294.644531 504.480469 C 292.671875 503.019531 290.738281 501.507812 288.839844 499.953125 C 286.941406 498.394531 285.085938 496.792969 283.265625 495.140625 C 281.445312 493.492188 279.667969 491.800781 277.933594 490.066406 C 276.199219 488.328125 274.507812 486.550781 272.855469 484.734375 C 271.207031 482.914062 269.605469 481.054688 268.046875 479.160156 C 266.492188 477.261719 264.980469 475.328125 263.519531 473.355469 C 262.054688 471.382812 260.644531 469.375 259.28125 467.335938 C 257.914062 465.292969 256.601562 463.222656 255.339844 461.117188 C 254.078125 459.007812 252.867188 456.875 251.710938 454.710938 C 250.554688 452.542969 249.449219 450.351562 248.402344 448.132812 C 247.351562 445.914062 246.359375 443.671875 245.417969 441.402344 C 244.480469 439.132812 243.59375 436.84375 242.769531 434.535156 C 241.941406 432.222656 241.171875 429.890625 240.457031 427.542969 C 239.746094 425.195312 239.089844 422.828125 238.496094 420.445312 C 237.898438 418.066406 237.359375 415.671875 236.882812 413.261719 C 236.402344 410.855469 235.984375 408.4375 235.625 406.007812 C 235.261719 403.582031 234.964844 401.144531 234.722656 398.703125 C 234.480469 396.257812 234.300781 393.8125 234.179688 391.359375 C 234.058594 388.910156 234 386.453125 234 384 C 234.058594 370.792969 235.832031 357.824219 239.316406 345.085938 C 254.335938 342.695312 269.847656 341.558594 285.648438 341.59375 "/></g></svg>