<svg xmlns="http://www.w3.org/2000/svg" xmlns:xlink="http://www.w3.org/1999/xlink" width="1024" zoomAndPan="magnify" viewBox="0 0 768 767.999994" height="1024" preserveAspectRatio="xMidYMid meet" version="1.2"><g id="c63c439e85"><path style=" stroke:none;fill-rule:evenodd;fill:#ffffff;fill-opacity:1;" d="M 382.164062 40 L 385.835938 40 C 459.707031 40 517.59375 40 562.761719 46.070312 C 608.992188 52.289062 645.476562 65.257812 674.109375 93.890625 C 702.742188 122.527344 715.710938 159.007812 721.929688 205.238281 C 728 250.40625 728 308.296875 728 382.164062 L 728 385.835938 C 728 459.707031 728 517.59375 721.929688 562.761719 C 715.710938 608.992188 702.742188 645.476562 674.109375 674.109375 C 645.476562 702.742188 608.992188 715.710938 562.761719 721.929688 C 517.59375 728 459.707031 728 385.835938 728 L 382.164062 728 C 308.296875 728 250.40625 728 205.238281 721.929688 C 159.007812 715.710938 122.527344 702.742188 93.890625 674.109375 C 65.257812 645.476562 52.289062 608.992188 46.070312 562.761719 C 40 517.59375 40 459.707031 40 385.835938 L 40 382.164062 C 40 308.296875 40 250.40625 46.070312 205.238281 C 52.289062 159.007812 65.257812 122.527344 93.890625 93.890625 C 122.527344 65.257812 159.007812 52.289062 205.238281 46.070312 C 250.40625 40 308.296875 40 382.164062 40 Z M 211.632812 93.644531 C 170.726562 99.144531 146.0625 109.605469 127.832031 127.832031 C 109.605469 146.0625 99.144531 170.726562 93.644531 211.632812 C 88.050781 253.234375 88 307.898438 88 384 C 88 460.101562 88.050781 514.765625 93.644531 556.363281 C 99.144531 597.273438 109.605469 621.9375 127.832031 640.167969 C 146.0625 658.398438 170.726562 668.859375 211.632812 674.355469 C 253.234375 679.949219 307.898438 680 384 680 C 460.101562 680 514.765625 679.949219 556.363281 674.355469 C 597.273438 668.859375 621.9375 658.398438 640.167969 640.167969 C 658.398438 621.9375 668.859375 597.273438 674.355469 556.363281 C 679.949219 514.765625 680 460.101562 680 384 C 680 307.898438 679.949219 253.234375 674.355469 211.632812 C 668.859375 170.726562 658.398438 146.0625 640.167969 127.832031 C 621.9375 109.605469 597.273438 99.144531 556.363281 93.644531 C 514.765625 88.050781 460.101562 88 384 88 C 307.898438 88 253.234375 88.050781 211.632812 93.644531 Z M 384 232 C 397.253906 232 408 242.746094 408 256 L 408 374.058594 L 480.96875 447.03125 C 490.34375 456.402344 490.34375 471.597656 480.96875 480.96875 C 471.597656 490.34375 456.402344 490.34375 447.03125 480.96875 L 378.746094 412.683594 C 369.496094 403.4375 364.871094 398.8125 362.433594 392.929688 C 360 387.054688 360 380.511719 360 367.429688 L 360 256 C 360 242.746094 370.746094 232 384 232 Z M 384 232 "/></g></svg>